<svg width="24" height="43" viewBox="0 0 24 43" fill="none" xmlns="http://www.w3.org/2000/svg">
<path d="M0.783203 42.6666V42.243C1.76432 40.6829 2.75147 39.1283 3.72053 37.5647C5.98032 33.9222 8.22402 30.2726 10.4878 26.6337C10.6889 26.325 10.6386 26.2208 10.2868 26.0665C5.53801 23.9804 3.08923 20.5013 2.64693 15.8446C2.32726 12.493 2.78163 9.2293 4.52472 6.20978C6.88303 2.14905 10.6728 0.0738025 15.8016 0.0127658C18.1619 -0.0159573 20.5242 0.0127658 22.8865 0.0127658C23.6324 0.0127658 23.7832 0.149201 23.7832 0.815219V42.2555C23.7832 42.9126 23.7068 42.9736 22.979 42.9826H19.724C18.9198 42.9826 18.8394 42.9162 18.8394 42.2053C18.8394 37.3582 18.8253 32.5256 18.8555 27.6857C18.8555 27.1274 18.6786 26.9982 18.1036 27.0394C17.4751 27.0807 16.8442 27.0807 16.2157 27.0394C15.7895 27.0143 15.5965 27.1741 15.4115 27.4936C12.633 32.3963 9.81834 37.2882 7.04186 42.1963C6.71214 42.7779 6.31607 43.0257 5.57822 42.9969C4.34177 42.9467 3.09929 42.9682 1.85882 42.9969C1.6639 43.0089 1.46829 42.9858 1.28355 42.9291C1.0988 42.8723 0.928667 42.7831 0.783203 42.6666ZM18.8394 13.5414C18.8394 10.4267 18.8294 7.31024 18.8515 4.19557C18.8515 3.77011 18.7168 3.65701 18.2624 3.68035C17.4964 3.71267 16.7264 3.69651 15.9604 3.68035C13.0351 3.65342 10.8035 4.81312 9.53889 7.10738C7.32735 11.1394 7.21677 15.315 9.21319 19.444C10.1782 21.4384 11.9877 22.6897 14.3862 23.1923C15.6689 23.4598 16.9757 23.2965 18.2684 23.3575C18.7429 23.3808 18.8515 23.2426 18.8495 22.8333C18.8294 19.7384 18.8394 16.6399 18.8394 13.5414Z" fill="#FC0000"/>
</svg>
