<svg width="16" height="17" viewBox="0 0 16 17" fill="none" xmlns="http://www.w3.org/2000/svg">
<path fill-rule="evenodd" clip-rule="evenodd" d="M15.9621 0.808609C15.9377 0.749636 15.9015 0.694385 15.8536 0.646447C15.8056 0.598508 15.7504 0.562339 15.6914 0.537939C15.6324 0.513493 15.5678 0.5 15.5 0.5H15.4999H0.5C0.223858 0.5 0 0.723858 0 1C0 1.27614 0.223858 1.5 0.5 1.5H14.2929L0.146447 15.6464C-0.0488155 15.8417 -0.0488155 16.1583 0.146447 16.3536C0.341709 16.5488 0.658291 16.5488 0.853553 16.3536L15 2.20711V16C15 16.2761 15.2239 16.5 15.5 16.5C15.7761 16.5 16 16.2761 16 16V1.00098C16 0.997577 16 0.994173 15.9999 0.990771C15.9988 0.928726 15.9862 0.866852 15.9621 0.808609Z" fill="white"/>
</svg>
