<svg width="16" height="16" viewBox="0 0 16 16" fill="none" xmlns="http://www.w3.org/2000/svg">
<path d="M2.33016 13.6698C3.75939 15.0977 5.67699 15.9305 7.6961 16C7.32485 13.7765 7.98878 11.4127 9.70071 9.70071C11.4135 7.98878 13.7765 7.32485 16 7.6961C15.9262 5.74521 15.1557 3.81598 13.6698 2.33016C12.184 0.844342 10.254 0.0737697 8.3039 0C8.67515 2.22351 8.01123 4.58735 6.29929 6.29929C4.58655 8.01123 2.22351 8.67515 0 8.3039C0.0688198 10.3232 0.901645 12.241 2.33016 13.6698Z" fill="#FFF000"/>
<path d="M10.8345 10.8345C10.1819 11.4877 9.70064 12.2918 9.43334 13.1755C9.16604 14.0592 9.12099 14.9953 9.3022 15.9006C10.9564 15.6349 12.4847 14.8542 13.6694 13.6695C14.8541 12.4847 15.6349 10.9565 15.9006 9.30222C14.9953 9.12123 14.0593 9.16638 13.1756 9.43367C12.2919 9.70096 11.4878 10.1821 10.8345 10.8345ZM5.16549 5.16551C5.81808 4.51239 6.29937 3.70829 6.56667 2.82456C6.83398 1.94082 6.87902 1.00477 6.69781 0.0994568C5.04342 0.364967 3.51497 1.14567 2.3301 2.3304C1.14523 3.51512 0.364344 5.04348 0.0986328 6.69783C1.00408 6.87889 1.94021 6.83378 2.82404 6.56649C3.70788 6.2992 4.51212 5.81799 5.16549 5.16551Z" fill="#FFF000"/>
</svg>
