<svg width="20" height="20" viewBox="0 0 20 20" fill="none" xmlns="http://www.w3.org/2000/svg">
<path d="M2.9127 17.0873C4.69924 18.8722 7.09624 19.9131 9.62013 20C9.15606 17.2206 9.98597 14.2658 12.1259 12.1259C14.2668 9.98597 17.2206 9.15606 20 9.62013C19.9078 7.18152 18.9446 4.76997 17.0873 2.9127C15.23 1.05543 12.8175 0.0922121 10.3799 0C10.8439 2.77939 10.014 5.73419 7.87411 7.87411C5.73319 10.014 2.77939 10.8439 0 10.3799C0.0860247 12.904 1.12706 15.3013 2.9127 17.0873Z" fill="#FFF000"/>
<path d="M13.5432 13.5432C12.7274 14.3596 12.1258 15.3647 11.7917 16.4694C11.4575 17.574 11.4012 18.7441 11.6278 19.8757C13.6956 19.5436 15.6059 18.5677 17.0868 17.0868C18.5677 15.6059 19.5436 13.6956 19.8757 11.6278C18.7441 11.4015 17.5741 11.458 16.4695 11.7921C15.3648 12.1262 14.3597 12.7276 13.5432 13.5432ZM6.45686 6.45686C7.27259 5.64046 7.87421 4.63534 8.20834 3.53068C8.54247 2.42601 8.59878 1.25595 8.37226 0.124298C6.30428 0.456186 4.39372 1.43206 2.91263 2.91297C1.43154 4.39388 0.455431 6.30432 0.123291 8.37227C1.2551 8.5986 2.42526 8.5422 3.53005 8.20809C4.63485 7.87397 5.64015 7.27246 6.45686 6.45686Z" fill="#FFF000"/>
</svg>
