<svg width="47" height="28" viewBox="0 0 47 28" fill="none" xmlns="http://www.w3.org/2000/svg">
<path d="M0.777729 22.7766C0.539116 22.9156 0.458357 23.2217 0.597348 23.4603L2.86234 27.3487C3.00133 27.5873 3.30744 27.6681 3.54605 27.5291C3.78467 27.3901 3.86543 27.084 3.72643 26.8454L1.71311 23.389L5.16948 21.3757C5.40809 21.2367 5.48885 20.9306 5.34986 20.692C5.21087 20.4534 4.90476 20.3726 4.66615 20.5116L0.777729 22.7766ZM0.901846 23.6921C1.81558 23.9332 2.7192 24.1373 3.61246 24.3065L3.79852 23.324C2.92869 23.1592 2.04809 22.9603 1.15694 22.7252L0.901846 23.6921ZM9.12423 24.9267C11.0303 24.9932 12.8801 24.9025 14.6707 24.6762L14.5454 23.6841C12.807 23.9038 11.0108 23.9919 9.1591 23.9273L9.12423 24.9267ZM20.1035 23.5423C21.9089 23.0138 23.64 22.3524 25.2934 21.5862L24.873 20.6789C23.262 21.4254 21.5775 22.0688 19.8226 22.5826L20.1035 23.5423ZM30.1489 18.9175C31.7322 17.9055 33.2241 16.8075 34.6207 15.6568L33.9848 14.885C32.6169 16.012 31.1574 17.0861 29.6104 18.0749L30.1489 18.9175ZM38.6854 11.9119C40.0285 10.5336 41.2464 9.1317 42.3337 7.75325L41.5485 7.13395C40.4819 8.48633 39.2868 9.86185 37.9692 11.2141L38.6854 11.9119ZM45.5166 3.22806C46.0351 2.39122 46.4944 1.58676 46.8925 0.82814L46.007 0.363462C45.6206 1.09971 45.1733 1.8835 44.6666 2.70136L45.5166 3.22806Z" fill="white"/>
</svg>
