<svg width="19" height="20" viewBox="0 0 19 20" fill="none" xmlns="http://www.w3.org/2000/svg">
<path d="M14.6723 5.87112C14.6723 7.50137 14.1289 9.67505 11.5205 10.5445C12.2813 8.69689 12.3899 6.84927 11.8465 5.11033C11.0857 2.82797 8.58601 1.08903 6.84707 0.110878C6.41234 -0.215173 5.65155 0.219562 5.76024 0.871664C5.76024 2.06719 5.43419 3.80612 3.58656 5.65375C1.19552 8.04479 0 10.5445 0 12.9356C0 16.0874 2.17367 20 6.52102 20C2.17367 15.6527 5.43419 11.8487 5.43419 11.8487C6.30366 18.2611 10.8684 20 13.042 20C14.8897 20 18.4762 18.6958 18.4762 13.0442C18.4762 9.67505 17.0633 7.06664 15.8678 5.54506C15.5418 5.00165 14.781 5.3277 14.6723 5.87112Z" fill="#1C1C1C"/>
</svg>
