<svg width="15" height="16" viewBox="0 0 15 16" fill="none" xmlns="http://www.w3.org/2000/svg">
<path d="M11.7378 4.69689C11.7378 6.0011 11.3031 7.74004 9.21638 8.43561C9.82501 6.95751 9.91195 5.47941 9.47722 4.08826C8.86859 2.26238 6.86881 0.871225 5.47766 0.0887024C5.12987 -0.172139 4.52124 0.175649 4.60819 0.697331C4.60819 1.65375 4.34735 3.0449 2.86925 4.523C0.956417 6.43583 0 8.43561 0 10.3484C0 12.8699 1.73894 16 5.21682 16C1.73894 12.5221 4.34735 9.47898 4.34735 9.47898C5.04292 14.6088 8.6947 16 10.4336 16C11.9117 16 14.781 14.9566 14.781 10.4354C14.781 7.74004 13.6507 5.65331 12.6943 4.43605C12.4334 4.00132 11.8248 4.26216 11.7378 4.69689Z" fill="#1C1C1C"/>
</svg>
