<svg width="29" height="29" viewBox="0 0 29 29" fill="none" xmlns="http://www.w3.org/2000/svg">
<path fill-rule="evenodd" clip-rule="evenodd" d="M14.5 29C22.5081 29 29 22.5081 29 14.5C29 6.49187 22.5081 0 14.5 0C6.49187 0 0 6.49187 0 14.5C0 22.5081 6.49187 29 14.5 29ZM10 8C8.89543 8 8 8.89543 8 10V19C8 20.1046 8.89543 21 10 21H19C20.1046 21 21 20.1046 21 19V10C21 8.89543 20.1046 8 19 8H10Z" fill="#FFF000"/>
<path fill-rule="evenodd" clip-rule="evenodd" d="M17.325 10.925C17.325 10.5108 17.6607 10.175 18.075 10.175H18.082C18.4962 10.175 18.832 10.5108 18.832 10.925C18.832 11.3392 18.4962 11.675 18.082 11.675H18.075C17.6607 11.675 17.325 11.3392 17.325 10.925Z" fill="#FFF000"/>
<circle cx="14.5" cy="14.5" r="3" stroke="#FFF000"/>
</svg>
