<svg width="29" height="29" viewBox="0 0 29 29" fill="none" xmlns="http://www.w3.org/2000/svg">
<path fill-rule="evenodd" clip-rule="evenodd" d="M14.5 29C22.5081 29 29 22.5081 29 14.5C29 6.49187 22.5081 0 14.5 0C6.49187 0 0 6.49187 0 14.5C0 22.5081 6.49187 29 14.5 29ZM10 8C8.89543 8 8 8.89543 8 10V19C8 20.1046 8.89543 21 10 21H19C20.1046 21 21 20.1046 21 19V10C21 8.89543 20.1046 8 19 8H10Z" fill="#FFF000"/>
<path fill-rule="evenodd" clip-rule="evenodd" d="M17.3252 10.9248C17.3252 10.5106 17.661 10.1748 18.0752 10.1748H18.0822C18.4964 10.1748 18.8322 10.5106 18.8322 10.9248C18.8322 11.339 18.4964 11.6748 18.0822 11.6748H18.0752C17.661 11.6748 17.3252 11.339 17.3252 10.9248Z" fill="#FFF000"/>
<circle cx="14.5" cy="14.5" r="3" stroke="#FFF000"/>
</svg>
