<svg width="24" height="24" viewBox="0 0 24 24" fill="none" xmlns="http://www.w3.org/2000/svg">
<path fill-rule="evenodd" clip-rule="evenodd" d="M12 24C18.6274 24 24 18.6274 24 12C24 5.37258 18.6274 0 12 0C5.37258 0 0 5.37258 0 12C0 18.6274 5.37258 24 12 24ZM8.62069 6.62069C7.51612 6.62069 6.62069 7.51612 6.62069 8.62069V15.3793C6.62069 16.4839 7.51612 17.3793 8.62069 17.3793H15.3793C16.4839 17.3793 17.3793 16.4839 17.3793 15.3793V8.62069C17.3793 7.51612 16.4839 6.62069 15.3793 6.62069H8.62069Z" fill="#FFF000"/>
<path fill-rule="evenodd" clip-rule="evenodd" d="M14.3379 9.04137C14.3379 8.69858 14.6158 8.42068 14.9586 8.42068H14.9644C15.3072 8.42068 15.5851 8.69858 15.5851 9.04137C15.5851 9.38417 15.3072 9.66206 14.9644 9.66206H14.9586C14.6158 9.66206 14.3379 9.38417 14.3379 9.04137Z" fill="#FFF000"/>
<circle cx="11.9999" cy="12" r="2.39655" stroke="#FFF000"/>
</svg>
