<svg width="16" height="13" viewBox="0 0 16 13" fill="none" xmlns="http://www.w3.org/2000/svg">
<path d="M15.2 0H0.8C0.587827 0 0.384344 0.0842856 0.234315 0.234315C0.0842854 0.384344 0 0.587827 0 0.8V12C0 12.2122 0.0842854 12.4157 0.234315 12.5657C0.384344 12.7157 0.587827 12.8 0.8 12.8H15.2C15.4122 12.8 15.6157 12.7157 15.7657 12.5657C15.9157 12.4157 16 12.2122 16 12V0.8C16 0.587827 15.9157 0.384344 15.7657 0.234315C15.6157 0.0842856 15.4122 0 15.2 0ZM14.4 8.8C13.7635 8.8 13.153 9.05286 12.7029 9.50294C12.2529 9.95303 12 10.5635 12 11.2H4C4 10.5635 3.74714 9.95303 3.29706 9.50294C2.84697 9.05286 2.23652 8.8 1.6 8.8V4C2.23652 4 2.84697 3.74714 3.29706 3.29706C3.74714 2.84697 4 2.23652 4 1.6H12C12 2.23652 12.2529 2.84697 12.7029 3.29706C13.153 3.74714 13.7635 4 14.4 4V8.8Z" fill="#FFF000"/>
<path d="M8.00005 3.20001C6.23525 3.20001 4.80005 4.63521 4.80005 6.40001C4.80005 8.16481 6.23525 9.60001 8.00005 9.60001C9.76485 9.60001 11.2 8.16481 11.2 6.40001C11.2 4.63521 9.76485 3.20001 8.00005 3.20001ZM8.00005 8.00001C7.11765 8.00001 6.40005 7.28241 6.40005 6.40001C6.40005 5.51761 7.11765 4.80001 8.00005 4.80001C8.88245 4.80001 9.60005 5.51761 9.60005 6.40001C9.60005 7.28241 8.88245 8.00001 8.00005 8.00001Z" fill="#FFF000"/>
</svg>
