<svg width="16" height="15" viewBox="0 0 16 15" fill="none" xmlns="http://www.w3.org/2000/svg">
<path fill-rule="evenodd" clip-rule="evenodd" d="M12.9305 4.45678C13.0325 5.46504 12.811 6.47959 12.2981 7.35362C15.1949 8.75741 16 11.7014 16 13.2079H14.3158C14.3158 13.1717 14.2745 9.58772 10.7107 8.54351L9.34822 8.14351L10.352 7.13972C10.6799 6.814 10.931 6.41931 11.0872 5.98434C11.2433 5.54937 11.3006 5.08507 11.2547 4.6252C11.1554 3.63573 10.5819 2.74562 9.63958 2.12078L10.5701 0.717834C11.9411 1.62647 12.7798 2.95446 12.9305 4.45678ZM9.6842 4.78684C9.6842 6.64452 8.17347 8.15526 6.31578 8.15526C4.4581 8.15526 2.94737 6.64452 2.94737 4.78684C2.94737 2.92916 4.4581 1.41842 6.31578 1.41842C8.17347 1.41842 9.6842 2.92916 9.6842 4.78684ZM0 14.05C0 11.2635 2.2661 8.99736 5.05263 8.99736H7.57894C10.3655 8.99736 12.6316 11.2635 12.6316 14.05V14.8921H0V14.05Z" fill="#1C1C1C"/>
</svg>
