<svg width="20" height="18" viewBox="0 0 20 18" fill="none" xmlns="http://www.w3.org/2000/svg">
<path fill-rule="evenodd" clip-rule="evenodd" d="M16.1632 4.67368C16.2906 5.934 16.0137 7.20219 15.3726 8.29473C18.9937 10.0495 20 13.7295 20 15.6126H17.8947C17.8947 15.5674 17.8432 11.0874 13.3884 9.7821L11.6853 9.2821L12.94 8.02736C13.3498 7.62021 13.6637 7.12684 13.8589 6.58313C14.0541 6.03942 14.1257 5.45905 14.0684 4.88421C13.9442 3.64737 13.2274 2.53473 12.0495 1.75368L13.2126 0C14.9263 1.13579 15.9747 2.79579 16.1632 4.67368ZM12.1053 5.08626C12.1053 7.40836 10.2168 9.29678 7.89473 9.29678C5.57263 9.29678 3.68421 7.40836 3.68421 5.08626C3.68421 2.76415 5.57263 0.875732 7.89473 0.875732C10.2168 0.875732 12.1053 2.76415 12.1053 5.08626ZM0 16.6652C0 13.182 2.83263 10.3494 6.31579 10.3494H9.47368C12.9568 10.3494 15.7895 13.182 15.7895 16.6652V17.7178H0V16.6652Z" fill="#1C1C1C"/>
</svg>
