<svg width="49" height="81" viewBox="0 0 49 81" fill="none" xmlns="http://www.w3.org/2000/svg">
<path d="M28.9498 53.5834H14.1562V37.2442C19.0138 36.2506 23.3194 34.5946 27.1834 32.0554C31.0474 29.5162 32.9242 26.7562 32.9242 23.5546C32.9242 17.7034 27.625 14.7226 20.2282 14.7226C13.9354 14.7226 7.31135 16.8202 0.466553 20.905V6.99456C6.75935 2.68896 14.1562 0.480957 22.7674 0.480957C29.9434 0.480957 36.1258 2.46816 41.2042 6.44256C46.393 10.3066 48.9322 15.7162 48.9322 22.561C48.9322 27.9706 46.945 32.6074 42.9706 36.4714C38.9962 40.3354 34.3594 43.0954 28.9498 44.7514V53.5834ZM21.8842 80.521C16.4746 80.521 12.2794 76.2154 12.2794 70.8058C12.2794 65.5066 16.4746 61.3114 21.8842 61.3114C27.1834 61.3114 31.489 65.5066 31.489 70.8058C31.489 76.2154 27.1834 80.521 21.8842 80.521Z" fill="white"/>
</svg>
