<svg width="29" height="17" viewBox="0 0 29 17" fill="none" xmlns="http://www.w3.org/2000/svg">
<path d="M28.4021 8.1069C29.1763 9.56878 29.1763 12.1271 28.5311 13.3453C27.8859 14.5635 26.7244 15.6599 25.3049 16.3909C24.4016 16.7564 23.8854 16.8782 22.3368 17C20.9173 17 20.014 16.8782 19.4978 16.7564C17.433 16.0254 15.8845 14.4417 15.1102 12.2489C14.8521 11.2743 14.8521 10.9088 15.1102 8.35055C15.6264 2.99032 16.4007 1.16297 18.4654 0.310206C19.4978 -0.177081 20.4011 -0.0552592 21.5625 0.432035C22.724 1.04115 23.3692 1.89391 23.7563 3.35579C24.0144 4.57402 24.0144 4.57402 24.9178 4.9395C26.3373 5.42679 27.8859 6.88867 28.4021 8.1069ZM10.0773 4.9395C11.4969 5.42679 13.0454 6.88867 13.5616 8.1069C14.3359 9.56878 14.3359 12.1271 13.5616 13.3453C13.0454 14.5635 11.7549 15.6599 10.4645 16.3909C9.56114 16.7564 9.04495 16.8782 7.49638 17C6.07686 17 5.30258 16.8782 4.65734 16.7564C2.46354 16.0254 1.04401 14.4417 0.269731 12.2489C0.0116362 11.2743 -0.117411 10.9088 0.140684 8.35055C0.656873 2.99032 1.5602 1.16297 3.62496 0.310206C4.65734 -0.177081 5.56067 -0.0552592 6.7221 0.432035C7.88352 1.04115 8.52876 1.89391 8.9159 3.35579C9.04495 4.57402 9.174 4.57402 10.0773 4.9395Z" fill="#1C1C1C"/>
</svg>
