<svg width="16" height="16" viewBox="0 0 16 16" fill="none" xmlns="http://www.w3.org/2000/svg">
<mask id="mask0_426_6371" style="mask-type:luminance" maskUnits="userSpaceOnUse" x="0" y="0" width="16" height="16">
<path d="M16 0H0V16H16V0Z" fill="white"/>
</mask>
<g mask="url(#mask0_426_6371)">
<path d="M7.33331 3.00008C7.33321 2.18828 7.10321 1.39318 6.67001 0.706683C7.87921 0.0789827 9.25591 -0.150758 10.6034 0.050282C11.951 0.251282 13.2006 0.872783 14.174 1.82608C14.7843 2.43808 15.2616 3.16968 15.5758 3.97498C15.8901 4.78018 16.0345 5.64168 16 6.50538C15.9388 8.29478 15.1942 9.99278 13.9193 11.2501C13.4037 11.7695 12.8145 12.2105 12.1707 12.5587L5.85801 6.24868C6.32111 5.84348 6.69221 5.34408 6.94671 4.78378C7.20111 4.22348 7.33291 3.61538 7.33331 3.00008ZM6.00001 3.00008C6.00001 2.40668 5.82411 1.82668 5.49441 1.33328C5.16481 0.839982 4.69621 0.455483 4.14811 0.228383C3.59991 0.0013826 2.99671 -0.0580675 2.41471 0.0576825C1.83281 0.173483 1.29821 0.459183 0.878712 0.878683C0.459112 1.29828 0.173412 1.83278 0.057612 2.41478C-0.058098 2.99668 0.0013122 3.59988 0.228412 4.14808C0.455412 4.69628 0.839911 5.16478 1.33331 5.49448C1.82661 5.82408 2.40671 6.00008 3.00001 6.00008C3.79541 5.99918 4.55791 5.68278 5.12031 5.12038C5.68281 4.55798 5.99911 3.79538 6.00001 3.00008ZM4.70601 6.98208C4.16721 7.21408 3.58671 7.33358 3.00001 7.33338C2.89471 7.33338 2.79071 7.32468 2.68731 7.31738C2.71981 7.89578 2.83201 8.46698 3.02071 9.01468C3.11631 9.35248 3.23891 9.68198 3.38731 10.0001C3.42161 10.0614 3.43491 10.1322 3.42511 10.2018C3.41541 10.2714 3.38311 10.3358 3.33331 10.3854L0.790712 12.1614V12.1707C0.554812 12.364 0.362612 12.6051 0.226712 12.8781C0.0907118 13.151 0.014212 13.4497 0.00211196 13.7544C-0.010058 14.0591 0.0425116 14.3629 0.156312 14.6458C0.270112 14.9288 0.442512 15.1843 0.662312 15.3958C0.882012 15.6072 1.14401 15.7697 1.43111 15.8725C1.71821 15.9754 2.02381 16.0162 2.32781 15.9923C2.63181 15.9685 2.92731 15.8805 3.19491 15.7342C3.46241 15.5879 3.69591 15.3865 3.88001 15.1434L3.88671 15.1474L5.60001 12.6667C5.64851 12.6111 5.71411 12.5731 5.78651 12.5588C5.85881 12.5444 5.93401 12.5545 6.00001 12.5874C6.93171 13.0656 7.96221 13.3194 9.00931 13.3287C9.62281 13.3432 10.2349 13.2668 10.826 13.1021L4.70601 6.98208Z" fill="#1C1C1C"/>
</g>
</svg>
