<svg width="20" height="20" viewBox="0 0 20 20" fill="none" xmlns="http://www.w3.org/2000/svg">
<mask id="mask0_426_6081" style="mask-type:luminance" maskUnits="userSpaceOnUse" x="0" y="0" width="20" height="20">
<path d="M20 0H0V20H20V0Z" fill="white"/>
</mask>
<g mask="url(#mask0_426_6081)">
<path d="M9.16664 3.7501C9.16651 2.73535 8.87901 1.74148 8.33751 0.883353C9.84901 0.0987284 11.5699 -0.188447 13.2543 0.0628525C14.9388 0.314103 16.5008 1.09098 17.7175 2.2826C18.4804 3.0476 19.077 3.9621 19.4698 4.96873C19.8626 5.97523 20.0431 7.0521 20 8.13173C19.9235 10.3685 18.9928 12.491 17.3991 14.0626C16.7546 14.7119 16.0181 15.2631 15.2134 15.6984L7.32251 7.81085C7.90139 7.30435 8.36526 6.6801 8.68339 5.97973C9.00139 5.27935 9.16614 4.51923 9.16664 3.7501ZM7.50001 3.7501C7.50001 3.00835 7.28014 2.28335 6.86801 1.6666C6.45601 1.04998 5.87026 0.569353 5.18514 0.285478C4.49989 0.00172826 3.74589 -0.0725843 3.01839 0.0721032C2.29101 0.216853 1.62277 0.573978 1.09839 1.09835C0.57389 1.62285 0.216765 2.29098 0.072015 3.01848C-0.0726225 3.74585 0.00164025 4.49985 0.285515 5.1851C0.569265 5.87035 1.04989 6.45598 1.66664 6.8681C2.28326 7.2801 3.00839 7.5001 3.75001 7.5001C4.74426 7.49898 5.69739 7.10348 6.40039 6.40048C7.10351 5.69748 7.49889 4.74423 7.50001 3.7501ZM5.88251 8.7276C5.20901 9.0176 4.48339 9.16698 3.75001 9.16673C3.61839 9.16673 3.48839 9.15585 3.35914 9.14673C3.39976 9.86973 3.54002 10.5837 3.77589 11.2684C3.89539 11.6906 4.04864 12.1025 4.23414 12.5001C4.27701 12.5767 4.29364 12.6652 4.28139 12.7522C4.26926 12.8392 4.22889 12.9197 4.16664 12.9817L0.98839 15.2017V15.2134C0.693515 15.455 0.453265 15.7564 0.28339 16.0976C0.11339 16.4387 0.0177649 16.8121 0.00263995 17.193C-0.0125725 17.5739 0.0531394 17.9536 0.195389 18.3072C0.337639 18.661 0.55314 18.9804 0.82789 19.2447C1.10251 19.509 1.43001 19.7121 1.78889 19.8406C2.14776 19.9692 2.52976 20.0202 2.90976 19.9904C3.28976 19.9606 3.65914 19.8506 3.99364 19.6677C4.32801 19.4849 4.61989 19.2331 4.85001 18.9292L4.85839 18.9342L7.00001 15.8334C7.06064 15.7639 7.14264 15.7164 7.23314 15.6985C7.32351 15.6805 7.41751 15.6931 7.50001 15.7342C8.66464 16.332 9.95276 16.6492 11.2616 16.6609C12.0285 16.679 12.7936 16.5835 13.5325 16.3776L5.88251 8.7276Z" fill="#1C1C1C"/>
</g>
</svg>
