<svg width="20" height="21" viewBox="0 0 20 21" fill="none" xmlns="http://www.w3.org/2000/svg">
<mask id="mask0_1402_2809" style="mask-type:luminance" maskUnits="userSpaceOnUse" x="0" y="0" width="20" height="21">
<path d="M20 0.875488H0V20.8755H20V0.875488Z" fill="white"/>
</mask>
<g mask="url(#mask0_1402_2809)">
<path d="M9.16664 4.62559C9.16651 3.61084 8.87901 2.61697 8.33751 1.75884C9.84901 0.974217 11.5699 0.687041 13.2543 0.938341C14.9388 1.18959 16.5008 1.96647 17.7175 3.15809C18.4804 3.92309 19.077 4.83759 19.4698 5.84422C19.8626 6.85072 20.0431 7.92759 20 9.00722C19.9235 11.244 18.9928 13.3665 17.3991 14.9381C16.7546 15.5873 16.0181 16.1386 15.2134 16.5738L7.32251 8.68634C7.90139 8.17984 8.36526 7.55559 8.68339 6.85522C9.00139 6.15484 9.16614 5.39472 9.16664 4.62559ZM7.50001 4.62559C7.50001 3.88384 7.28014 3.15884 6.86801 2.54209C6.45601 1.92547 5.87026 1.44484 5.18514 1.16097C4.49989 0.877217 3.74589 0.802904 3.01839 0.947591C2.29101 1.09234 1.62277 1.44947 1.09839 1.97384C0.57389 2.49834 0.216765 3.16647 0.072015 3.89397C-0.0726225 4.62134 0.00164025 5.37534 0.285515 6.06059C0.569265 6.74584 1.04989 7.33147 1.66664 7.74359C2.28326 8.15559 3.00839 8.37559 3.75001 8.37559C4.74426 8.37446 5.69739 7.97897 6.40039 7.27597C7.10351 6.57297 7.49889 5.61972 7.50001 4.62559ZM5.88251 9.60309C5.20901 9.89309 4.48339 10.0425 3.75001 10.0422C3.61839 10.0422 3.48839 10.0313 3.35914 10.0222C3.39976 10.7452 3.54002 11.4592 3.77589 12.1438C3.89539 12.5661 4.04864 12.978 4.23414 13.3756C4.27701 13.4522 4.29364 13.5407 4.28139 13.6277C4.26926 13.7147 4.22889 13.7952 4.16664 13.8572L0.98839 16.0772V16.0888C0.693515 16.3305 0.453265 16.6318 0.28339 16.9731C0.11339 17.3142 0.0177649 17.6876 0.00263995 18.0685C-0.0125725 18.4493 0.0531394 18.8291 0.195389 19.1827C0.337639 19.5365 0.55314 19.8558 0.82789 20.1202C1.10251 20.3845 1.43001 20.5876 1.78889 20.7161C2.14776 20.8447 2.52976 20.8957 2.90976 20.8658C3.28976 20.8361 3.65914 20.7261 3.99364 20.5432C4.32801 20.3603 4.61989 20.1086 4.85001 19.8047L4.85839 19.8097L7.00001 16.7088C7.06064 16.6393 7.14264 16.5918 7.23314 16.574C7.32351 16.556 7.41751 16.5686 7.50001 16.6097C8.66464 17.2075 9.95276 17.5247 11.2616 17.5363C12.0285 17.5545 12.7936 17.459 13.5325 17.2531L5.88251 9.60309Z" fill="white"/>
</g>
</svg>
