<svg width="18" height="18" viewBox="0 0 18 18" fill="none" xmlns="http://www.w3.org/2000/svg">
<path d="M16.9995 12.9791L16.2497 12.9604C16.2496 12.9666 16.2495 12.9729 16.2495 12.9791H16.9995ZM16.9995 15.3877H16.2495L16.2495 15.3908L16.9995 15.3877ZM15.2457 16.9935L15.1649 17.7392L15.1784 17.7404L15.2457 16.9935ZM8.30312 14.5286L8.71065 13.899L8.7048 13.8953L8.30312 14.5286ZM3.47627 9.71134L4.10894 9.30852L4.10536 9.303L3.47627 9.71134ZM1.00653 2.75036L0.259493 2.818L0.26074 2.82972L1.00653 2.75036ZM2.60744 1.00008V0.250077L2.60673 0.250078L2.60744 1.00008ZM5.02086 1.00008V1.75011L5.02823 1.75004L5.02086 1.00008ZM6.62981 2.38103L7.37338 2.28277L7.3724 2.27587L6.62981 2.38103ZM7.19295 4.63713L6.49044 4.89979L6.49108 4.90149L7.19295 4.63713ZM6.83093 6.33121L7.36074 6.86208L7.3637 6.8591L6.83093 6.33121ZM5.80925 7.35087L5.27945 6.82002C5.04011 7.05888 4.99021 7.42835 5.15759 7.72215L5.80925 7.35087ZM10.6361 12.1682L10.2659 12.8204C10.5591 12.9868 10.9273 12.9372 11.1659 12.699L10.6361 12.1682ZM11.6578 11.1485L11.131 10.6147L11.128 10.6176L11.6578 11.1485ZM13.3552 10.7872L13.0918 11.4894L13.0935 11.49L13.3552 10.7872ZM15.6158 11.3492L15.7204 10.6065L15.7137 10.6056L15.6158 11.3492ZM16.2495 12.9791V15.3877H17.7495V12.9791H16.2495ZM16.2495 15.3908C16.25 15.5097 16.2256 15.6275 16.1778 15.7366L17.5517 16.3385C17.6835 16.0378 17.7508 15.7129 17.7495 15.3847L16.2495 15.3908ZM16.1778 15.7366C16.13 15.8456 16.0599 15.9437 15.9718 16.0243L16.9847 17.1306C17.2269 16.909 17.42 16.6392 17.5517 16.3385L16.1778 15.7366ZM15.9718 16.0243C15.8837 16.105 15.7796 16.1665 15.6662 16.2048L16.1459 17.626C16.4569 17.521 16.7426 17.3523 16.9847 17.1306L15.9718 16.0243ZM15.6662 16.2048C15.5527 16.243 15.4325 16.2573 15.3131 16.2465L15.1784 17.7404C15.5053 17.7699 15.8348 17.731 16.1459 17.626L15.6662 16.2048ZM15.3266 16.2479C12.9675 15.992 10.7015 15.1875 8.71063 13.899L7.89562 15.1583C10.0832 16.5741 12.573 17.458 15.1649 17.7391L15.3266 16.2479ZM8.7048 13.8953C6.85395 12.7215 5.28487 11.1555 4.10892 9.30854L2.84362 10.1142C4.13795 12.147 5.8648 13.8704 7.90145 15.162L8.7048 13.8953ZM4.10536 9.303C2.80998 7.30735 2.00389 5.03532 1.75232 2.671L0.26074 2.82972C0.537293 5.4288 1.4234 7.92623 2.84718 10.1197L4.10536 9.303ZM1.75347 2.68273C1.74278 2.56462 1.75684 2.44556 1.79479 2.33312L0.373537 1.85348C0.26889 2.16357 0.230073 2.49206 0.259585 2.81799L1.75347 2.68273ZM1.79479 2.33312C1.83273 2.22067 1.89376 2.11724 1.97407 2.02944L0.867227 1.01706C0.646344 1.25856 0.478183 1.5434 0.373537 1.85348L1.79479 2.33312ZM1.97407 2.02944C2.05437 1.94164 2.15221 1.87139 2.26139 1.82326L1.65633 0.450711C1.35686 0.582726 1.08811 0.775575 0.867227 1.01706L1.97407 2.02944ZM2.26139 1.82326C2.37058 1.77513 2.48867 1.75019 2.60814 1.75008L2.60673 0.250078C2.27946 0.250386 1.95579 0.318698 1.65633 0.450711L2.26139 1.82326ZM2.60744 1.75008H5.02086V0.250078H2.60744V1.75008ZM5.02823 1.75004C5.23708 1.74799 5.43934 1.82182 5.59733 1.95742L6.57427 0.819179C6.14021 0.446627 5.58548 0.244496 5.0135 0.250114L5.02823 1.75004ZM5.59733 1.95742C5.75527 2.09298 5.85816 2.28098 5.88722 2.4862L7.3724 2.27587C7.29218 1.70944 7.00837 1.19176 6.57427 0.819179L5.59733 1.95742ZM5.88628 2.47929C5.99557 3.3063 6.19825 4.1183 6.49045 4.89979L7.89545 4.37447C7.64293 3.6991 7.46779 2.99741 7.37335 2.28277L5.88628 2.47929ZM6.49108 4.90149C6.54869 5.05444 6.56114 5.2206 6.52701 5.38033L7.99389 5.6938C8.08808 5.25303 8.05368 4.79457 7.89481 4.37278L6.49108 4.90149ZM6.52701 5.38033C6.49287 5.54008 6.41353 5.6869 6.29817 5.80333L7.3637 6.8591C7.68093 6.53893 7.8997 6.13455 7.99389 5.6938L6.52701 5.38033ZM6.30113 5.80036L5.27945 6.82002L6.33905 7.88173L7.36074 6.86207L6.30113 5.80036ZM5.15759 7.72215C6.36971 9.84962 8.13461 11.6109 10.2659 12.8204L11.0063 11.5159C9.10951 10.4395 7.53922 8.87222 6.4609 6.9796L5.15759 7.72215ZM11.1659 12.699L12.1876 11.6794L11.128 10.6176L10.1063 11.6373L11.1659 12.699ZM12.1846 11.6823C12.3013 11.5672 12.4488 11.4876 12.6096 11.4534L12.2974 9.98627C11.8566 10.0801 11.4517 10.2981 11.131 10.6147L12.1846 11.6823ZM12.6096 11.4534C12.7705 11.4192 12.9379 11.4317 13.0918 11.4894L13.6187 10.085C13.1967 9.92669 12.7382 9.89245 12.2974 9.98627L12.6096 11.4534ZM13.0935 11.49C13.8763 11.7816 14.6896 11.9838 15.5179 12.0928L15.7137 10.6056C14.9973 10.5113 14.2939 10.3365 13.617 10.0844L13.0935 11.49ZM15.5112 12.0919C15.7203 12.1213 15.9108 12.2264 16.0469 12.3866L17.1904 11.4158C16.8161 10.975 16.2929 10.6872 15.7204 10.6065L15.5112 12.0919ZM16.0469 12.3866C16.1829 12.5468 16.2549 12.751 16.2497 12.9604L17.7493 12.9977C17.7636 12.4196 17.5646 11.8566 17.1904 11.4158L16.0469 12.3866Z" fill="#1C1C1C"/>
</svg>
