<svg width="15" height="15" viewBox="0 0 15 15" fill="none" xmlns="http://www.w3.org/2000/svg">
<path d="M13.9996 10.733L13.4996 10.7206V10.733H13.9996ZM13.9996 12.69H13.4996L13.4996 12.6921L13.9996 12.69ZM12.5747 13.9947L12.5208 14.4919L12.5298 14.4927L12.5747 13.9947ZM6.93379 11.992L7.20547 11.5722L7.20157 11.5698L6.93379 11.992ZM3.01197 8.07797L3.43375 7.80942L3.43136 7.80574L3.01197 8.07797ZM1.00531 2.42217L0.507281 2.46726L0.508112 2.47507L1.00531 2.42217ZM2.30604 1.00006V0.500063L2.30557 0.500063L2.30604 1.00006ZM4.26695 1.00006V1.50009L4.27186 1.50004L4.26695 1.00006ZM5.57422 2.12209L6.06994 2.05658L6.06928 2.05198L5.57422 2.12209ZM6.03177 3.95517L5.56343 4.13028L5.56386 4.13141L6.03177 3.95517ZM5.73763 5.33161L6.09084 5.68552L6.09281 5.68353L5.73763 5.33161ZM4.90751 6.16008L4.55431 5.80618C4.39476 5.96542 4.36149 6.21174 4.47308 6.4076L4.90751 6.16008ZM8.82933 10.0741L8.58256 10.509C8.77802 10.6199 9.02346 10.5868 9.18254 10.428L8.82933 10.0741ZM9.65945 9.24566L9.30823 8.88978L9.30625 8.89176L9.65945 9.24566ZM11.0386 8.95211L10.863 9.42025L10.8641 9.42067L11.0386 8.95211ZM12.8753 9.40874L12.9451 8.91361L12.9406 8.91302L12.8753 9.40874ZM13.4996 10.733V12.69H14.4996V10.733H13.4996ZM13.4996 12.6921C13.5001 12.804 13.4771 12.9148 13.4321 13.0174L14.3481 13.4186C14.449 13.1883 14.5006 12.9394 14.4996 12.688L13.4996 12.6921ZM13.4321 13.0174C13.3872 13.12 13.3212 13.2121 13.2384 13.2879L13.9137 14.0255C14.0992 13.8556 14.2472 13.649 14.3481 13.4186L13.4321 13.0174ZM13.2384 13.2879C13.1556 13.3637 13.0578 13.4215 12.9512 13.4575L13.271 14.405C13.5093 14.3245 13.7283 14.1953 13.9137 14.0255L13.2384 13.2879ZM12.9512 13.4575C12.8447 13.4935 12.7317 13.5068 12.6196 13.4967L12.5298 14.4927C12.7803 14.5153 13.0327 14.4854 13.271 14.405L12.9512 13.4575ZM12.6286 13.4976C10.6948 13.2879 8.83736 12.6284 7.20546 11.5723L6.66212 12.4118C8.4252 13.5529 10.4318 14.2653 12.5208 14.4918L12.6286 13.4976ZM7.20157 11.5698C5.68421 10.6075 4.39783 9.32363 3.43374 7.80943L2.5902 8.34651C3.63321 9.98465 5.02477 11.3734 6.66601 12.4143L7.20157 11.5698ZM3.43136 7.80574C2.3695 6.16985 1.70872 4.30739 1.5025 2.36926L0.508112 2.47507C0.73099 4.56971 1.44512 6.58244 2.59258 8.3502L3.43136 7.80574ZM1.50327 2.37708C1.49321 2.26596 1.50644 2.15396 1.54213 2.04819L0.594632 1.72843C0.514469 1.96597 0.484736 2.21759 0.507343 2.46726L1.50327 2.37708ZM1.54213 2.04819C1.57783 1.94241 1.63522 1.84514 1.71072 1.7626L0.972829 1.08768C0.803612 1.27269 0.674793 1.49089 0.594632 1.72843L1.54213 2.04819ZM1.71072 1.7626C1.78622 1.68006 1.87818 1.61404 1.98076 1.56882L1.57739 0.653785C1.34794 0.75493 1.14204 0.90268 0.972829 1.08768L1.71072 1.7626ZM1.98076 1.56882C2.08335 1.52359 2.19429 1.50017 2.30651 1.50006L2.30557 0.500063C2.05482 0.500299 1.80683 0.55264 1.57739 0.653785L1.98076 1.56882ZM2.30604 1.50006H4.26695V0.500063H2.30604V1.50006ZM4.27186 1.50004C4.46803 1.49811 4.65807 1.56745 4.80656 1.6949L5.45786 0.93608C5.12531 0.650659 4.7003 0.495783 4.26204 0.500087L4.27186 1.50004ZM4.80656 1.6949C4.95503 1.82233 5.05182 1.99912 5.07916 2.1922L6.06928 2.05198C6.00784 1.61809 5.79043 1.22152 5.45786 0.93608L4.80656 1.6949ZM5.07853 2.1876C5.16625 2.85135 5.32892 3.50305 5.56343 4.13028L6.5001 3.78006C6.29204 3.22359 6.14773 2.64542 6.06991 2.05658L5.07853 2.1876ZM5.56386 4.13141C5.61805 4.27528 5.62977 4.4316 5.59765 4.58188L6.57557 4.79085C6.64772 4.45323 6.62138 4.10203 6.49968 3.77893L5.56386 4.13141ZM5.59765 4.58188C5.56554 4.73216 5.49091 4.87024 5.38246 4.97969L6.09281 5.68353C6.33584 5.43826 6.50343 5.12848 6.57557 4.79085L5.59765 4.58188ZM5.38443 4.97771L4.55431 5.80618L5.26072 6.51399L6.09084 5.68551L5.38443 4.97771ZM4.47308 6.4076C5.44817 8.11905 6.86796 9.53597 8.58256 10.509L9.07611 9.63927C7.51789 8.755 6.22784 7.46745 5.34195 5.91257L4.47308 6.4076ZM9.18254 10.428L10.0127 9.59956L9.30625 8.89176L8.47613 9.72023L9.18254 10.428ZM10.0107 9.60153C10.1204 9.49329 10.2589 9.41858 10.4101 9.38641L10.2019 8.40832C9.86413 8.48021 9.55398 8.64725 9.30823 8.88978L10.0107 9.60153ZM10.4101 9.38641C10.5612 9.35425 10.7184 9.366 10.863 9.42025L11.2142 8.48396C10.8909 8.36268 10.5396 8.33644 10.2019 8.40832L10.4101 9.38641ZM10.8641 9.42067C11.4924 9.65466 12.1452 9.81696 12.8101 9.90447L12.9406 8.91302C12.3504 8.83533 11.7709 8.69125 11.2131 8.48354L10.8641 9.42067ZM12.8056 9.90386C13.002 9.93151 13.1811 10.0302 13.309 10.1808L14.0713 9.53363C13.7846 9.19595 13.3837 8.97539 12.9451 8.91363L12.8056 9.90386ZM13.309 10.1808C13.4368 10.3314 13.5047 10.5235 13.4998 10.7206L14.4994 10.7454C14.5105 10.3026 14.358 9.87134 14.0713 9.53363L13.309 10.1808Z" fill="#1C1C1C"/>
</svg>
