<svg width="25" height="25" viewBox="0 0 25 25" fill="none" xmlns="http://www.w3.org/2000/svg">
<path d="M11.9792 20.8333C16.8692 20.8333 20.8333 16.8692 20.8333 11.9792C20.8333 7.08914 16.8692 3.125 11.9792 3.125C7.08914 3.125 3.125 7.08914 3.125 11.9792C3.125 16.8692 7.08914 20.8333 11.9792 20.8333Z" fill="#1C1C1C"/>
<path d="M12.5 0C19.4037 0 25 5.59625 25 12.5C25 19.4037 19.4037 25 12.5 25C10.291 25.0036 8.12083 24.4189 6.21251 23.3062L0.00501758 25L1.69502 18.79C0.581383 16.8811 -0.00367296 14.71 1.73503e-05 12.5C1.73503e-05 5.59625 5.59626 0 12.5 0ZM8.24001 6.625L7.99 6.635C7.82816 6.64485 7.66998 6.68737 7.525 6.75999C7.38941 6.83678 7.26563 6.93277 7.15751 7.04499C7.00751 7.18624 6.92251 7.30874 6.83126 7.42749C6.36891 8.02862 6.11998 8.76666 6.12376 9.52499C6.12626 10.1375 6.28626 10.7337 6.53626 11.2912C7.04751 12.4187 7.88875 13.6125 8.99874 14.7187C9.26624 14.985 9.52874 15.2525 9.81124 15.5012C11.1905 16.7156 12.8341 17.5912 14.6112 18.0587L15.3212 18.1675C15.5525 18.18 15.7837 18.1625 16.0162 18.1512C16.3803 18.1324 16.7357 18.0338 17.0575 17.8625C17.2212 17.7782 17.3809 17.6864 17.5362 17.5875C17.5362 17.5875 17.59 17.5525 17.6925 17.475C17.8612 17.35 17.965 17.2612 18.105 17.115C18.2087 17.0075 18.2987 16.8812 18.3675 16.7375C18.465 16.5337 18.5625 16.145 18.6025 15.8212C18.6325 15.5737 18.6237 15.4387 18.62 15.355C18.615 15.2212 18.5037 15.0825 18.3825 15.0237L17.655 14.6975C17.655 14.6975 16.5675 14.2237 15.9025 13.9212C15.8329 13.8908 15.7583 13.8735 15.6825 13.87C15.597 13.8612 15.5106 13.8708 15.4291 13.8982C15.3476 13.9256 15.2729 13.9701 15.21 14.0287C15.2037 14.0262 15.12 14.0975 14.2162 15.1925C14.1644 15.2622 14.0929 15.3148 14.011 15.3438C13.9291 15.3727 13.8404 15.3767 13.7562 15.355C13.6748 15.3332 13.5951 15.3056 13.5175 15.2725C13.3625 15.2075 13.3087 15.1825 13.2025 15.1375C12.4851 14.8244 11.8208 14.4014 11.2337 13.8837C11.0762 13.7462 10.93 13.5962 10.78 13.4512C10.2882 12.9802 9.85966 12.4475 9.50499 11.8662L9.43124 11.7475C9.37824 11.6677 9.33549 11.5816 9.30374 11.4912C9.25624 11.3075 9.37999 11.16 9.37999 11.16C9.37999 11.16 9.68374 10.8275 9.82499 10.6475C9.96249 10.4725 10.0787 10.3025 10.1537 10.1812C10.3012 9.94374 10.3475 9.69999 10.27 9.51124C9.91999 8.65624 9.55749 7.80499 9.18499 6.95999C9.11125 6.79249 8.89249 6.67249 8.69374 6.64874C8.62624 6.64124 8.55874 6.63374 8.49125 6.62874C8.32339 6.6204 8.15518 6.62207 7.9875 6.63375L8.23875 6.62374L8.24001 6.625Z" fill="#FFF000"/>
</svg>
