<svg width="145" height="49" viewBox="0 0 145 49" fill="none" xmlns="http://www.w3.org/2000/svg">
<path d="M0.799205 42.7384C0.565113 42.8849 0.494086 43.1934 0.640562 43.4275L3.02753 47.2423C3.174 47.4764 3.48252 47.5474 3.71661 47.4009C3.9507 47.2545 4.02173 46.9459 3.87525 46.7118L1.7535 43.3209L5.1444 41.1992C5.3785 41.0527 5.44952 40.7442 5.30305 40.5101C5.15657 40.276 4.84806 40.205 4.61397 40.3515L0.799205 42.7384ZM0.952246 43.6496C2.58147 44.0246 4.19879 44.3747 5.80415 44.7004L6.00297 43.7203C4.40619 43.3964 2.79737 43.0482 1.1766 42.6751L0.952246 43.6496ZM15.5167 46.4008C18.8499 46.8909 22.1275 47.2756 25.3486 47.5616L25.4371 46.5655C22.2351 46.2812 18.9765 45.8987 15.6621 45.4114L15.5167 46.4008ZM35.1922 48.1408C38.5607 48.2369 41.8618 48.225 45.0945 48.1137L45.0601 47.1143C41.8483 47.2249 38.5682 47.2367 35.2208 47.1412L35.1922 48.1408ZM54.948 47.4545C58.2952 47.1202 61.5611 46.6798 64.7444 46.1441L64.5785 45.158C61.4171 45.6899 58.1734 46.1274 54.8486 46.4595L54.948 47.4545ZM74.4387 44.1687C77.7145 43.3824 80.891 42.4969 83.9666 41.5263L83.6656 40.5726C80.612 41.5363 77.4581 42.4155 74.2053 43.1963L74.4387 44.1687ZM93.2834 38.2182C96.4267 36.9742 99.4466 35.6456 102.341 34.2509L101.907 33.35C99.0338 34.7344 96.036 36.0534 92.9155 37.2884L93.2834 38.2182ZM111.087 29.6349C114.04 27.9343 116.831 26.1752 119.459 24.3842L118.896 23.5579C116.289 25.3348 113.518 27.0805 110.588 28.7683L111.087 29.6349ZM127.412 18.4917C130.124 16.3064 132.599 14.1162 134.831 11.9665L134.137 11.2462C131.927 13.3753 129.474 15.5459 126.784 17.713L127.412 18.4917ZM141.605 4.72581C142.73 3.37587 143.742 2.06763 144.639 0.815056L143.826 0.232744C142.944 1.46409 141.948 2.75305 140.837 4.08562L141.605 4.72581Z" fill="white"/>
</svg>
